M48
; DRILL file {KiCad 9.0.7} date 2026-01-06T14:06:19-0800
; FORMAT={-:-/ absolute / metric / decimal}
; #@! TF.CreationDate,2026-01-06T14:06:19-08:00
; #@! TF.GenerationSoftware,Kicad,Pcbnew,9.0.7
; #@! TF.FileFunction,Plated,1,2,PTH
FMAT,2
METRIC
; #@! TA.AperFunction,Plated,PTH,ViaDrill
T1C0.300
; #@! TA.AperFunction,Plated,PTH,ComponentDrill
T2C1.000
; #@! TA.AperFunction,Plated,PTH,ComponentDrill
T3C1.016
%
G90
G05
T1
X146.53Y-104.97
X163.5Y-120.5
T2
X136.74Y-122.21
X136.74Y-124.75
X139.28Y-122.21
X139.28Y-124.75
X141.82Y-122.21
X141.82Y-124.75
X144.36Y-122.21
X144.36Y-124.75
X146.9Y-122.21
X146.9Y-124.75
X149.44Y-122.21
X149.44Y-124.75
X151.98Y-122.21
X151.98Y-124.75
X154.52Y-122.21
X154.52Y-124.75
X157.06Y-122.21
X157.06Y-124.75
X159.6Y-122.21
X159.6Y-124.75
X162.14Y-122.21
X162.14Y-124.75
X164.68Y-122.21
X164.68Y-124.75
X167.22Y-122.21
X167.22Y-124.75
X169.76Y-122.21
X169.76Y-124.75
X172.3Y-122.21
X172.3Y-124.75
X174.84Y-122.21
X174.84Y-124.75
X177.38Y-122.21
X177.38Y-124.75
X179.92Y-122.21
X179.92Y-124.75
X182.46Y-122.21
X182.46Y-124.75
X185.0Y-122.21
X185.0Y-124.75
T3
X138.796Y-100.74
X141.336Y-100.74
X143.876Y-100.74
X146.416Y-100.74
X147.94Y-149.0
X148.956Y-100.74
X150.48Y-149.0
X151.496Y-100.74
X153.02Y-149.0
X154.036Y-100.74
X155.56Y-149.0
X156.576Y-100.74
X158.1Y-149.0
X159.116Y-100.74
X160.64Y-149.0
X161.656Y-100.74
X163.18Y-149.0
X165.72Y-100.74
X165.72Y-149.0
X168.26Y-100.74
X170.8Y-100.74
X170.8Y-149.0
X173.34Y-100.74
X173.34Y-149.0
X175.88Y-100.74
X175.88Y-149.0
X178.42Y-100.74
X178.42Y-149.0
X180.96Y-100.74
X180.96Y-149.0
X183.5Y-100.74
X183.5Y-149.0
M30
