%TF.GenerationSoftware,KiCad,Pcbnew,9.0.7*%
%TF.CreationDate,2026-01-06T14:06:23-08:00*%
%TF.ProjectId,uno2pi,756e6f32-7069-42e6-9b69-6361645f7063,rev?*%
%TF.SameCoordinates,Original*%
%TF.FileFunction,Soldermask,Bot*%
%TF.FilePolarity,Negative*%
%FSLAX46Y46*%
G04 Gerber Fmt 4.6, Leading zero omitted, Abs format (unit mm)*
G04 Created by KiCad (PCBNEW 9.0.7) date 2026-01-06 14:06:23*
%MOMM*%
%LPD*%
G01*
G04 APERTURE LIST*
G04 Aperture macros list*
%AMRoundRect*
0 Rectangle with rounded corners*
0 $1 Rounding radius*
0 $2 $3 $4 $5 $6 $7 $8 $9 X,Y pos of 4 corners*
0 Add a 4 corners polygon primitive as box body*
4,1,4,$2,$3,$4,$5,$6,$7,$8,$9,$2,$3,0*
0 Add four circle primitives for the rounded corners*
1,1,$1+$1,$2,$3*
1,1,$1+$1,$4,$5*
1,1,$1+$1,$6,$7*
1,1,$1+$1,$8,$9*
0 Add four rect primitives between the rounded corners*
20,1,$1+$1,$2,$3,$4,$5,0*
20,1,$1+$1,$4,$5,$6,$7,0*
20,1,$1+$1,$6,$7,$8,$9,0*
20,1,$1+$1,$8,$9,$2,$3,0*%
G04 Aperture macros list end*
%ADD10O,1.727200X1.727200*%
%ADD11R,1.727200X1.727200*%
%ADD12RoundRect,0.250000X-0.600000X0.600000X-0.600000X-0.600000X0.600000X-0.600000X0.600000X0.600000X0*%
%ADD13C,1.700000*%
G04 APERTURE END LIST*
D10*
%TO.C,A1*%
X147940000Y-149000000D03*
X155560000Y-149000000D03*
X158100000Y-149000000D03*
X170800000Y-149000000D03*
X173340000Y-149000000D03*
X175880000Y-149000000D03*
X178420000Y-149000000D03*
X180960000Y-149000000D03*
X183500000Y-149000000D03*
X143876000Y-100740000D03*
X183500000Y-100740000D03*
X180960000Y-100740000D03*
X178420000Y-100740000D03*
X175880000Y-100740000D03*
X173340000Y-100740000D03*
X170800000Y-100740000D03*
X168260000Y-100740000D03*
X165720000Y-100740000D03*
X161656000Y-100740000D03*
X159116000Y-100740000D03*
X156576000Y-100740000D03*
X154036000Y-100740000D03*
X151496000Y-100740000D03*
X148956000Y-100740000D03*
D11*
X146416000Y-100740000D03*
X160640000Y-149000000D03*
X163180000Y-149000000D03*
D10*
X150480000Y-149000000D03*
X153020000Y-149000000D03*
X138796000Y-100740000D03*
X141336000Y-100740000D03*
X165720000Y-149000000D03*
%TD*%
D12*
%TO.C,J1*%
X185000000Y-122210000D03*
D13*
X185000000Y-124750000D03*
X182460000Y-122210000D03*
X182460000Y-124750000D03*
X179920000Y-122210000D03*
X179920000Y-124750000D03*
X177380000Y-122210000D03*
X177380000Y-124750000D03*
X174840000Y-122210000D03*
X174840000Y-124750000D03*
X172300000Y-122210000D03*
X172300000Y-124750000D03*
X169760000Y-122210000D03*
X169760000Y-124750000D03*
X167220000Y-122210000D03*
X167220000Y-124750000D03*
X164680000Y-122210000D03*
X164680000Y-124750000D03*
X162140000Y-122210000D03*
X162140000Y-124750000D03*
X159600000Y-122210000D03*
X159600000Y-124750000D03*
X157060000Y-122210000D03*
X157060000Y-124750000D03*
X154520000Y-122210000D03*
X154520000Y-124750000D03*
X151980000Y-122210000D03*
X151980000Y-124750000D03*
X149440000Y-122210000D03*
X149440000Y-124750000D03*
X146900000Y-122210000D03*
X146900000Y-124750000D03*
X144360000Y-122210000D03*
X144360000Y-124750000D03*
X141820000Y-122210000D03*
X141820000Y-124750000D03*
X139280000Y-122210000D03*
X139280000Y-124750000D03*
X136740000Y-122210000D03*
X136740000Y-124750000D03*
%TD*%
M02*
