%TF.GenerationSoftware,KiCad,Pcbnew,9.0.7*%
%TF.CreationDate,2026-01-06T14:06:23-08:00*%
%TF.ProjectId,uno2pi,756e6f32-7069-42e6-9b69-6361645f7063,rev?*%
%TF.SameCoordinates,Original*%
%TF.FileFunction,Soldermask,Top*%
%TF.FilePolarity,Negative*%
%FSLAX46Y46*%
G04 Gerber Fmt 4.6, Leading zero omitted, Abs format (unit mm)*
G04 Created by KiCad (PCBNEW 9.0.7) date 2026-01-06 14:06:23*
%MOMM*%
%LPD*%
G01*
G04 APERTURE LIST*
G04 Aperture macros list*
%AMRoundRect*
0 Rectangle with rounded corners*
0 $1 Rounding radius*
0 $2 $3 $4 $5 $6 $7 $8 $9 X,Y pos of 4 corners*
0 Add a 4 corners polygon primitive as box body*
4,1,4,$2,$3,$4,$5,$6,$7,$8,$9,$2,$3,0*
0 Add four circle primitives for the rounded corners*
1,1,$1+$1,$2,$3*
1,1,$1+$1,$4,$5*
1,1,$1+$1,$6,$7*
1,1,$1+$1,$8,$9*
0 Add four rect primitives between the rounded corners*
20,1,$1+$1,$2,$3,$4,$5,0*
20,1,$1+$1,$4,$5,$6,$7,0*
20,1,$1+$1,$6,$7,$8,$9,0*
20,1,$1+$1,$8,$9,$2,$3,0*%
G04 Aperture macros list end*
%ADD10C,0.010000*%
%ADD11O,1.727200X1.727200*%
%ADD12R,1.727200X1.727200*%
%ADD13RoundRect,0.250000X-0.600000X0.600000X-0.600000X-0.600000X0.600000X-0.600000X0.600000X0.600000X0*%
%ADD14C,1.700000*%
G04 APERTURE END LIST*
D10*
%TO.C,G\u002A\u002A\u002A*%
X138252231Y-145512903D02*
X138290066Y-145514678D01*
X138325963Y-145517750D01*
X138361612Y-145522251D01*
X138398699Y-145528312D01*
X138423737Y-145533026D01*
X138460705Y-145540673D01*
X138495970Y-145548856D01*
X138530578Y-145557908D01*
X138565576Y-145568164D01*
X138602009Y-145579956D01*
X138640922Y-145593618D01*
X138683361Y-145609484D01*
X138730373Y-145627888D01*
X138765937Y-145642206D01*
X138813158Y-145661605D01*
X138861098Y-145681743D01*
X138910159Y-145702811D01*
X138960747Y-145724999D01*
X139013266Y-145748495D01*
X139068121Y-145773489D01*
X139125714Y-145800172D01*
X139186451Y-145828732D01*
X139250736Y-145859359D01*
X139318973Y-145892242D01*
X139391565Y-145927572D01*
X139468919Y-145965537D01*
X139551436Y-146006328D01*
X139639523Y-146050133D01*
X139697285Y-146078977D01*
X139778999Y-146119764D01*
X139854932Y-146157498D01*
X139925558Y-146192396D01*
X139991349Y-146224675D01*
X140052777Y-146254552D01*
X140110315Y-146282244D01*
X140164435Y-146307967D01*
X140215609Y-146331938D01*
X140264311Y-146354375D01*
X140311011Y-146375495D01*
X140356182Y-146395514D01*
X140400297Y-146414648D01*
X140443829Y-146433116D01*
X140487249Y-146451134D01*
X140531029Y-146468919D01*
X140575643Y-146486688D01*
X140621563Y-146504657D01*
X140638742Y-146511309D01*
X140662724Y-146520593D01*
X140684988Y-146529255D01*
X140704548Y-146536909D01*
X140720419Y-146543166D01*
X140731614Y-146547640D01*
X140736984Y-146549870D01*
X140747032Y-146554373D01*
X140731898Y-146573649D01*
X140720089Y-146587702D01*
X140704120Y-146605282D01*
X140685121Y-146625249D01*
X140664223Y-146646463D01*
X140642557Y-146667786D01*
X140621255Y-146688077D01*
X140601446Y-146706197D01*
X140592881Y-146713720D01*
X140517302Y-146774839D01*
X140435552Y-146833038D01*
X140347947Y-146888175D01*
X140254801Y-146940106D01*
X140156431Y-146988686D01*
X140053152Y-147033773D01*
X139945279Y-147075222D01*
X139833128Y-147112891D01*
X139717014Y-147146635D01*
X139597254Y-147176310D01*
X139557478Y-147185081D01*
X139498453Y-147197367D01*
X139444614Y-147207813D01*
X139394405Y-147216677D01*
X139346274Y-147224213D01*
X139298669Y-147230677D01*
X139250035Y-147236326D01*
X139239978Y-147237388D01*
X139219932Y-147238985D01*
X139194712Y-147240238D01*
X139165639Y-147241148D01*
X139134033Y-147241713D01*
X139101214Y-147241934D01*
X139068503Y-147241811D01*
X139037220Y-147241343D01*
X139008685Y-147240530D01*
X138984219Y-147239372D01*
X138965141Y-147237869D01*
X138961283Y-147237429D01*
X138890787Y-147226159D01*
X138825868Y-147210577D01*
X138766514Y-147190675D01*
X138712711Y-147166442D01*
X138664446Y-147137871D01*
X138621706Y-147104952D01*
X138584475Y-147067675D01*
X138552742Y-147026033D01*
X138526492Y-146980016D01*
X138507014Y-146933356D01*
X138497764Y-146905136D01*
X138491150Y-146879590D01*
X138486811Y-146854470D01*
X138484389Y-146827526D01*
X138483523Y-146796510D01*
X138483511Y-146786490D01*
X138483706Y-146729583D01*
X138460741Y-146727230D01*
X138437777Y-146724878D01*
X138388019Y-146758810D01*
X138388461Y-146808159D01*
X138392446Y-146866390D01*
X138403227Y-146923141D01*
X138420627Y-146977995D01*
X138444467Y-147030532D01*
X138474569Y-147080336D01*
X138510754Y-147126988D01*
X138535974Y-147153955D01*
X138576610Y-147190800D01*
X138620340Y-147223171D01*
X138667672Y-147251291D01*
X138719111Y-147275384D01*
X138775166Y-147295673D01*
X138836343Y-147312384D01*
X138903148Y-147325738D01*
X138936589Y-147330913D01*
X138957655Y-147333189D01*
X138984503Y-147334985D01*
X139015875Y-147336300D01*
X139050515Y-147337134D01*
X139087166Y-147337488D01*
X139124569Y-147337362D01*
X139161469Y-147336756D01*
X139196607Y-147335670D01*
X139228726Y-147334103D01*
X139256570Y-147332057D01*
X139268200Y-147330888D01*
X139382447Y-147315715D01*
X139497579Y-147295855D01*
X139612724Y-147271570D01*
X139727009Y-147243121D01*
X139839559Y-147210769D01*
X139949503Y-147174775D01*
X140055966Y-147135400D01*
X140158076Y-147092906D01*
X140254960Y-147047554D01*
X140309808Y-147019298D01*
X140392918Y-146972551D01*
X140471858Y-146923431D01*
X140546181Y-146872287D01*
X140615441Y-146819468D01*
X140679193Y-146765322D01*
X140736991Y-146710197D01*
X140788388Y-146654443D01*
X140810080Y-146628280D01*
X140824789Y-146610372D01*
X140835847Y-146598059D01*
X140843521Y-146591067D01*
X140848078Y-146589122D01*
X140848306Y-146589173D01*
X140862882Y-146592812D01*
X140883329Y-146596939D01*
X140908496Y-146601388D01*
X140937229Y-146605993D01*
X140968374Y-146610587D01*
X141000779Y-146615004D01*
X141033291Y-146619076D01*
X141064756Y-146622637D01*
X141094021Y-146625520D01*
X141107936Y-146626693D01*
X141138196Y-146628430D01*
X141171709Y-146629111D01*
X141208921Y-146628709D01*
X141250275Y-146627198D01*
X141296217Y-146624550D01*
X141347191Y-146620738D01*
X141403641Y-146615737D01*
X141466012Y-146609519D01*
X141534748Y-146602056D01*
X141555964Y-146599653D01*
X141653896Y-146587839D01*
X141758310Y-146574053D01*
X141868926Y-146558344D01*
X141985467Y-146540762D01*
X142107654Y-146521359D01*
X142235211Y-146500186D01*
X142367857Y-146477292D01*
X142505317Y-146452728D01*
X142647310Y-146426546D01*
X142793560Y-146398795D01*
X142943788Y-146369527D01*
X143097717Y-146338791D01*
X143255067Y-146306640D01*
X143415561Y-146273122D01*
X143578921Y-146238289D01*
X143744869Y-146202192D01*
X143773172Y-146195966D01*
X143804705Y-146189068D01*
X143834773Y-146182587D01*
X143862526Y-146176699D01*
X143887113Y-146171580D01*
X143907684Y-146167407D01*
X143923386Y-146164356D01*
X143933370Y-146162604D01*
X143935450Y-146162320D01*
X143962829Y-146162403D01*
X143991797Y-146167998D01*
X144020537Y-146178440D01*
X144047232Y-146193063D01*
X144070063Y-146211200D01*
X144070777Y-146211897D01*
X144081534Y-146224258D01*
X144094759Y-146242384D01*
X144110073Y-146265582D01*
X144127098Y-146293162D01*
X144145453Y-146324433D01*
X144164762Y-146358702D01*
X144184644Y-146395279D01*
X144204721Y-146433471D01*
X144224615Y-146472589D01*
X144243947Y-146511939D01*
X144262337Y-146550831D01*
X144279408Y-146588574D01*
X144288138Y-146608688D01*
X144315618Y-146677628D01*
X144337495Y-146742553D01*
X144353764Y-146803431D01*
X144364420Y-146860228D01*
X144369458Y-146912912D01*
X144368874Y-146961450D01*
X144362662Y-147005808D01*
X144351503Y-147044155D01*
X144341921Y-147064417D01*
X144328358Y-147086330D01*
X144312559Y-147107428D01*
X144296272Y-147125241D01*
X144290289Y-147130660D01*
X144274900Y-147142571D01*
X144258281Y-147153087D01*
X144239889Y-147162318D01*
X144219178Y-147170374D01*
X144195606Y-147177365D01*
X144168627Y-147183402D01*
X144137698Y-147188594D01*
X144102274Y-147193052D01*
X144061812Y-147196886D01*
X144015767Y-147200205D01*
X143963596Y-147203121D01*
X143923103Y-147204982D01*
X143903332Y-147205761D01*
X143877504Y-147206676D01*
X143846616Y-147207697D01*
X143811664Y-147208794D01*
X143773646Y-147209937D01*
X143733557Y-147211094D01*
X143692395Y-147212237D01*
X143651156Y-147213334D01*
X143630297Y-147213870D01*
X143524332Y-147216665D01*
X143424823Y-147219528D01*
X143331171Y-147222488D01*
X143242776Y-147225574D01*
X143159040Y-147228816D01*
X143079362Y-147232244D01*
X143003144Y-147235886D01*
X142929787Y-147239772D01*
X142858691Y-147243932D01*
X142789256Y-147248395D01*
X142720883Y-147253190D01*
X142652974Y-147258348D01*
X142584929Y-147263896D01*
X142549033Y-147266968D01*
X142396625Y-147281284D01*
X142250116Y-147297301D01*
X142108514Y-147315226D01*
X141970829Y-147335262D01*
X141836069Y-147357613D01*
X141703242Y-147382486D01*
X141571356Y-147410083D01*
X141439421Y-147440611D01*
X141306444Y-147474273D01*
X141171434Y-147511274D01*
X141033399Y-147551818D01*
X140891349Y-147596111D01*
X140783381Y-147631316D01*
X140726729Y-147650215D01*
X140674301Y-147667981D01*
X140625524Y-147684879D01*
X140579827Y-147701177D01*
X140536637Y-147717140D01*
X140495384Y-147733035D01*
X140455495Y-147749127D01*
X140416399Y-147765684D01*
X140377525Y-147782970D01*
X140338299Y-147801252D01*
X140298152Y-147820797D01*
X140256510Y-147841871D01*
X140212802Y-147864739D01*
X140166457Y-147889669D01*
X140116903Y-147916925D01*
X140063568Y-147946775D01*
X140005880Y-147979484D01*
X139943268Y-148015319D01*
X139878506Y-148052615D01*
X139828313Y-148081543D01*
X139783543Y-148107250D01*
X139743539Y-148130098D01*
X139707645Y-148150448D01*
X139675206Y-148168663D01*
X139645565Y-148185103D01*
X139618066Y-148200130D01*
X139592053Y-148214107D01*
X139566870Y-148227394D01*
X139541862Y-148240354D01*
X139516372Y-148253349D01*
X139493978Y-148264620D01*
X139428661Y-148296541D01*
X139367874Y-148324502D01*
X139310569Y-148348864D01*
X139255701Y-148369988D01*
X139202222Y-148388236D01*
X139149085Y-148403969D01*
X139095243Y-148417548D01*
X139039649Y-148429337D01*
X138992175Y-148437894D01*
X138932899Y-148447275D01*
X138878314Y-148454649D01*
X138826396Y-148460177D01*
X138775126Y-148464023D01*
X138722479Y-148466350D01*
X138666434Y-148467322D01*
X138627908Y-148467309D01*
X138601320Y-148467109D01*
X138576276Y-148466851D01*
X138553870Y-148466551D01*
X138535197Y-148466226D01*
X138521349Y-148465892D01*
X138513423Y-148465567D01*
X138513256Y-148465555D01*
X138422209Y-148456540D01*
X138332400Y-148442896D01*
X138244685Y-148424842D01*
X138159918Y-148402598D01*
X138078956Y-148376383D01*
X138002655Y-148346419D01*
X137944991Y-148319617D01*
X137859157Y-148272719D01*
X137775530Y-148219177D01*
X137694188Y-148159073D01*
X137615206Y-148092490D01*
X137538661Y-148019508D01*
X137464629Y-147940211D01*
X137393185Y-147854679D01*
X137324407Y-147762996D01*
X137258371Y-147665242D01*
X137195152Y-147561501D01*
X137134827Y-147451853D01*
X137130500Y-147443546D01*
X137093493Y-147368534D01*
X137058979Y-147290789D01*
X137026600Y-147209380D01*
X136995998Y-147123374D01*
X136966812Y-147031839D01*
X136950310Y-146975558D01*
X136942743Y-146948969D01*
X136697006Y-146849844D01*
X136657529Y-146833869D01*
X136620013Y-146818591D01*
X136584966Y-146804222D01*
X136552894Y-146790973D01*
X136524302Y-146779057D01*
X136499698Y-146768687D01*
X136479588Y-146760074D01*
X136464478Y-146753430D01*
X136454874Y-146748968D01*
X136451283Y-146746901D01*
X136451269Y-146746855D01*
X136453844Y-146743978D01*
X136461315Y-146736765D01*
X136473298Y-146725562D01*
X136489413Y-146710717D01*
X136509278Y-146692576D01*
X136532510Y-146671486D01*
X136558729Y-146647794D01*
X136587551Y-146621848D01*
X136618595Y-146593993D01*
X136651480Y-146564578D01*
X136677047Y-146541766D01*
X136902825Y-146340541D01*
X136917203Y-146300822D01*
X136945538Y-146230748D01*
X136978786Y-146163845D01*
X137017352Y-146099507D01*
X137061645Y-146037124D01*
X137112070Y-145976087D01*
X137169035Y-145915790D01*
X137185424Y-145899717D01*
X137252738Y-145839539D01*
X137325330Y-145783859D01*
X137402934Y-145732810D01*
X137485286Y-145686522D01*
X137572121Y-145645130D01*
X137663174Y-145608764D01*
X137758179Y-145577558D01*
X137856871Y-145551642D01*
X137902950Y-145541634D01*
X137947347Y-145532997D01*
X137987069Y-145526227D01*
X138024179Y-145521095D01*
X138060740Y-145517372D01*
X138098814Y-145514829D01*
X138140465Y-145513239D01*
X138164006Y-145512716D01*
X138210774Y-145512293D01*
X138252231Y-145512903D01*
G36*
X138252231Y-145512903D02*
G01*
X138290066Y-145514678D01*
X138325963Y-145517750D01*
X138361612Y-145522251D01*
X138398699Y-145528312D01*
X138423737Y-145533026D01*
X138460705Y-145540673D01*
X138495970Y-145548856D01*
X138530578Y-145557908D01*
X138565576Y-145568164D01*
X138602009Y-145579956D01*
X138640922Y-145593618D01*
X138683361Y-145609484D01*
X138730373Y-145627888D01*
X138765937Y-145642206D01*
X138813158Y-145661605D01*
X138861098Y-145681743D01*
X138910159Y-145702811D01*
X138960747Y-145724999D01*
X139013266Y-145748495D01*
X139068121Y-145773489D01*
X139125714Y-145800172D01*
X139186451Y-145828732D01*
X139250736Y-145859359D01*
X139318973Y-145892242D01*
X139391565Y-145927572D01*
X139468919Y-145965537D01*
X139551436Y-146006328D01*
X139639523Y-146050133D01*
X139697285Y-146078977D01*
X139778999Y-146119764D01*
X139854932Y-146157498D01*
X139925558Y-146192396D01*
X139991349Y-146224675D01*
X140052777Y-146254552D01*
X140110315Y-146282244D01*
X140164435Y-146307967D01*
X140215609Y-146331938D01*
X140264311Y-146354375D01*
X140311011Y-146375495D01*
X140356182Y-146395514D01*
X140400297Y-146414648D01*
X140443829Y-146433116D01*
X140487249Y-146451134D01*
X140531029Y-146468919D01*
X140575643Y-146486688D01*
X140621563Y-146504657D01*
X140638742Y-146511309D01*
X140662724Y-146520593D01*
X140684988Y-146529255D01*
X140704548Y-146536909D01*
X140720419Y-146543166D01*
X140731614Y-146547640D01*
X140736984Y-146549870D01*
X140747032Y-146554373D01*
X140731898Y-146573649D01*
X140720089Y-146587702D01*
X140704120Y-146605282D01*
X140685121Y-146625249D01*
X140664223Y-146646463D01*
X140642557Y-146667786D01*
X140621255Y-146688077D01*
X140601446Y-146706197D01*
X140592881Y-146713720D01*
X140517302Y-146774839D01*
X140435552Y-146833038D01*
X140347947Y-146888175D01*
X140254801Y-146940106D01*
X140156431Y-146988686D01*
X140053152Y-147033773D01*
X139945279Y-147075222D01*
X139833128Y-147112891D01*
X139717014Y-147146635D01*
X139597254Y-147176310D01*
X139557478Y-147185081D01*
X139498453Y-147197367D01*
X139444614Y-147207813D01*
X139394405Y-147216677D01*
X139346274Y-147224213D01*
X139298669Y-147230677D01*
X139250035Y-147236326D01*
X139239978Y-147237388D01*
X139219932Y-147238985D01*
X139194712Y-147240238D01*
X139165639Y-147241148D01*
X139134033Y-147241713D01*
X139101214Y-147241934D01*
X139068503Y-147241811D01*
X139037220Y-147241343D01*
X139008685Y-147240530D01*
X138984219Y-147239372D01*
X138965141Y-147237869D01*
X138961283Y-147237429D01*
X138890787Y-147226159D01*
X138825868Y-147210577D01*
X138766514Y-147190675D01*
X138712711Y-147166442D01*
X138664446Y-147137871D01*
X138621706Y-147104952D01*
X138584475Y-147067675D01*
X138552742Y-147026033D01*
X138526492Y-146980016D01*
X138507014Y-146933356D01*
X138497764Y-146905136D01*
X138491150Y-146879590D01*
X138486811Y-146854470D01*
X138484389Y-146827526D01*
X138483523Y-146796510D01*
X138483511Y-146786490D01*
X138483706Y-146729583D01*
X138460741Y-146727230D01*
X138437777Y-146724878D01*
X138388019Y-146758810D01*
X138388461Y-146808159D01*
X138392446Y-146866390D01*
X138403227Y-146923141D01*
X138420627Y-146977995D01*
X138444467Y-147030532D01*
X138474569Y-147080336D01*
X138510754Y-147126988D01*
X138535974Y-147153955D01*
X138576610Y-147190800D01*
X138620340Y-147223171D01*
X138667672Y-147251291D01*
X138719111Y-147275384D01*
X138775166Y-147295673D01*
X138836343Y-147312384D01*
X138903148Y-147325738D01*
X138936589Y-147330913D01*
X138957655Y-147333189D01*
X138984503Y-147334985D01*
X139015875Y-147336300D01*
X139050515Y-147337134D01*
X139087166Y-147337488D01*
X139124569Y-147337362D01*
X139161469Y-147336756D01*
X139196607Y-147335670D01*
X139228726Y-147334103D01*
X139256570Y-147332057D01*
X139268200Y-147330888D01*
X139382447Y-147315715D01*
X139497579Y-147295855D01*
X139612724Y-147271570D01*
X139727009Y-147243121D01*
X139839559Y-147210769D01*
X139949503Y-147174775D01*
X140055966Y-147135400D01*
X140158076Y-147092906D01*
X140254960Y-147047554D01*
X140309808Y-147019298D01*
X140392918Y-146972551D01*
X140471858Y-146923431D01*
X140546181Y-146872287D01*
X140615441Y-146819468D01*
X140679193Y-146765322D01*
X140736991Y-146710197D01*
X140788388Y-146654443D01*
X140810080Y-146628280D01*
X140824789Y-146610372D01*
X140835847Y-146598059D01*
X140843521Y-146591067D01*
X140848078Y-146589122D01*
X140848306Y-146589173D01*
X140862882Y-146592812D01*
X140883329Y-146596939D01*
X140908496Y-146601388D01*
X140937229Y-146605993D01*
X140968374Y-146610587D01*
X141000779Y-146615004D01*
X141033291Y-146619076D01*
X141064756Y-146622637D01*
X141094021Y-146625520D01*
X141107936Y-146626693D01*
X141138196Y-146628430D01*
X141171709Y-146629111D01*
X141208921Y-146628709D01*
X141250275Y-146627198D01*
X141296217Y-146624550D01*
X141347191Y-146620738D01*
X141403641Y-146615737D01*
X141466012Y-146609519D01*
X141534748Y-146602056D01*
X141555964Y-146599653D01*
X141653896Y-146587839D01*
X141758310Y-146574053D01*
X141868926Y-146558344D01*
X141985467Y-146540762D01*
X142107654Y-146521359D01*
X142235211Y-146500186D01*
X142367857Y-146477292D01*
X142505317Y-146452728D01*
X142647310Y-146426546D01*
X142793560Y-146398795D01*
X142943788Y-146369527D01*
X143097717Y-146338791D01*
X143255067Y-146306640D01*
X143415561Y-146273122D01*
X143578921Y-146238289D01*
X143744869Y-146202192D01*
X143773172Y-146195966D01*
X143804705Y-146189068D01*
X143834773Y-146182587D01*
X143862526Y-146176699D01*
X143887113Y-146171580D01*
X143907684Y-146167407D01*
X143923386Y-146164356D01*
X143933370Y-146162604D01*
X143935450Y-146162320D01*
X143962829Y-146162403D01*
X143991797Y-146167998D01*
X144020537Y-146178440D01*
X144047232Y-146193063D01*
X144070063Y-146211200D01*
X144070777Y-146211897D01*
X144081534Y-146224258D01*
X144094759Y-146242384D01*
X144110073Y-146265582D01*
X144127098Y-146293162D01*
X144145453Y-146324433D01*
X144164762Y-146358702D01*
X144184644Y-146395279D01*
X144204721Y-146433471D01*
X144224615Y-146472589D01*
X144243947Y-146511939D01*
X144262337Y-146550831D01*
X144279408Y-146588574D01*
X144288138Y-146608688D01*
X144315618Y-146677628D01*
X144337495Y-146742553D01*
X144353764Y-146803431D01*
X144364420Y-146860228D01*
X144369458Y-146912912D01*
X144368874Y-146961450D01*
X144362662Y-147005808D01*
X144351503Y-147044155D01*
X144341921Y-147064417D01*
X144328358Y-147086330D01*
X144312559Y-147107428D01*
X144296272Y-147125241D01*
X144290289Y-147130660D01*
X144274900Y-147142571D01*
X144258281Y-147153087D01*
X144239889Y-147162318D01*
X144219178Y-147170374D01*
X144195606Y-147177365D01*
X144168627Y-147183402D01*
X144137698Y-147188594D01*
X144102274Y-147193052D01*
X144061812Y-147196886D01*
X144015767Y-147200205D01*
X143963596Y-147203121D01*
X143923103Y-147204982D01*
X143903332Y-147205761D01*
X143877504Y-147206676D01*
X143846616Y-147207697D01*
X143811664Y-147208794D01*
X143773646Y-147209937D01*
X143733557Y-147211094D01*
X143692395Y-147212237D01*
X143651156Y-147213334D01*
X143630297Y-147213870D01*
X143524332Y-147216665D01*
X143424823Y-147219528D01*
X143331171Y-147222488D01*
X143242776Y-147225574D01*
X143159040Y-147228816D01*
X143079362Y-147232244D01*
X143003144Y-147235886D01*
X142929787Y-147239772D01*
X142858691Y-147243932D01*
X142789256Y-147248395D01*
X142720883Y-147253190D01*
X142652974Y-147258348D01*
X142584929Y-147263896D01*
X142549033Y-147266968D01*
X142396625Y-147281284D01*
X142250116Y-147297301D01*
X142108514Y-147315226D01*
X141970829Y-147335262D01*
X141836069Y-147357613D01*
X141703242Y-147382486D01*
X141571356Y-147410083D01*
X141439421Y-147440611D01*
X141306444Y-147474273D01*
X141171434Y-147511274D01*
X141033399Y-147551818D01*
X140891349Y-147596111D01*
X140783381Y-147631316D01*
X140726729Y-147650215D01*
X140674301Y-147667981D01*
X140625524Y-147684879D01*
X140579827Y-147701177D01*
X140536637Y-147717140D01*
X140495384Y-147733035D01*
X140455495Y-147749127D01*
X140416399Y-147765684D01*
X140377525Y-147782970D01*
X140338299Y-147801252D01*
X140298152Y-147820797D01*
X140256510Y-147841871D01*
X140212802Y-147864739D01*
X140166457Y-147889669D01*
X140116903Y-147916925D01*
X140063568Y-147946775D01*
X140005880Y-147979484D01*
X139943268Y-148015319D01*
X139878506Y-148052615D01*
X139828313Y-148081543D01*
X139783543Y-148107250D01*
X139743539Y-148130098D01*
X139707645Y-148150448D01*
X139675206Y-148168663D01*
X139645565Y-148185103D01*
X139618066Y-148200130D01*
X139592053Y-148214107D01*
X139566870Y-148227394D01*
X139541862Y-148240354D01*
X139516372Y-148253349D01*
X139493978Y-148264620D01*
X139428661Y-148296541D01*
X139367874Y-148324502D01*
X139310569Y-148348864D01*
X139255701Y-148369988D01*
X139202222Y-148388236D01*
X139149085Y-148403969D01*
X139095243Y-148417548D01*
X139039649Y-148429337D01*
X138992175Y-148437894D01*
X138932899Y-148447275D01*
X138878314Y-148454649D01*
X138826396Y-148460177D01*
X138775126Y-148464023D01*
X138722479Y-148466350D01*
X138666434Y-148467322D01*
X138627908Y-148467309D01*
X138601320Y-148467109D01*
X138576276Y-148466851D01*
X138553870Y-148466551D01*
X138535197Y-148466226D01*
X138521349Y-148465892D01*
X138513423Y-148465567D01*
X138513256Y-148465555D01*
X138422209Y-148456540D01*
X138332400Y-148442896D01*
X138244685Y-148424842D01*
X138159918Y-148402598D01*
X138078956Y-148376383D01*
X138002655Y-148346419D01*
X137944991Y-148319617D01*
X137859157Y-148272719D01*
X137775530Y-148219177D01*
X137694188Y-148159073D01*
X137615206Y-148092490D01*
X137538661Y-148019508D01*
X137464629Y-147940211D01*
X137393185Y-147854679D01*
X137324407Y-147762996D01*
X137258371Y-147665242D01*
X137195152Y-147561501D01*
X137134827Y-147451853D01*
X137130500Y-147443546D01*
X137093493Y-147368534D01*
X137058979Y-147290789D01*
X137026600Y-147209380D01*
X136995998Y-147123374D01*
X136966812Y-147031839D01*
X136950310Y-146975558D01*
X136942743Y-146948969D01*
X136697006Y-146849844D01*
X136657529Y-146833869D01*
X136620013Y-146818591D01*
X136584966Y-146804222D01*
X136552894Y-146790973D01*
X136524302Y-146779057D01*
X136499698Y-146768687D01*
X136479588Y-146760074D01*
X136464478Y-146753430D01*
X136454874Y-146748968D01*
X136451283Y-146746901D01*
X136451269Y-146746855D01*
X136453844Y-146743978D01*
X136461315Y-146736765D01*
X136473298Y-146725562D01*
X136489413Y-146710717D01*
X136509278Y-146692576D01*
X136532510Y-146671486D01*
X136558729Y-146647794D01*
X136587551Y-146621848D01*
X136618595Y-146593993D01*
X136651480Y-146564578D01*
X136677047Y-146541766D01*
X136902825Y-146340541D01*
X136917203Y-146300822D01*
X136945538Y-146230748D01*
X136978786Y-146163845D01*
X137017352Y-146099507D01*
X137061645Y-146037124D01*
X137112070Y-145976087D01*
X137169035Y-145915790D01*
X137185424Y-145899717D01*
X137252738Y-145839539D01*
X137325330Y-145783859D01*
X137402934Y-145732810D01*
X137485286Y-145686522D01*
X137572121Y-145645130D01*
X137663174Y-145608764D01*
X137758179Y-145577558D01*
X137856871Y-145551642D01*
X137902950Y-145541634D01*
X137947347Y-145532997D01*
X137987069Y-145526227D01*
X138024179Y-145521095D01*
X138060740Y-145517372D01*
X138098814Y-145514829D01*
X138140465Y-145513239D01*
X138164006Y-145512716D01*
X138210774Y-145512293D01*
X138252231Y-145512903D01*
G37*
%TD*%
D11*
%TO.C,A1*%
X147940000Y-149000000D03*
X155560000Y-149000000D03*
X158100000Y-149000000D03*
X170800000Y-149000000D03*
X173340000Y-149000000D03*
X175880000Y-149000000D03*
X178420000Y-149000000D03*
X180960000Y-149000000D03*
X183500000Y-149000000D03*
X143876000Y-100740000D03*
X183500000Y-100740000D03*
X180960000Y-100740000D03*
X178420000Y-100740000D03*
X175880000Y-100740000D03*
X173340000Y-100740000D03*
X170800000Y-100740000D03*
X168260000Y-100740000D03*
X165720000Y-100740000D03*
X161656000Y-100740000D03*
X159116000Y-100740000D03*
X156576000Y-100740000D03*
X154036000Y-100740000D03*
X151496000Y-100740000D03*
X148956000Y-100740000D03*
D12*
X146416000Y-100740000D03*
X160640000Y-149000000D03*
X163180000Y-149000000D03*
D11*
X150480000Y-149000000D03*
X153020000Y-149000000D03*
X138796000Y-100740000D03*
X141336000Y-100740000D03*
X165720000Y-149000000D03*
%TD*%
D13*
%TO.C,J1*%
X185000000Y-122210000D03*
D14*
X185000000Y-124750000D03*
X182460000Y-122210000D03*
X182460000Y-124750000D03*
X179920000Y-122210000D03*
X179920000Y-124750000D03*
X177380000Y-122210000D03*
X177380000Y-124750000D03*
X174840000Y-122210000D03*
X174840000Y-124750000D03*
X172300000Y-122210000D03*
X172300000Y-124750000D03*
X169760000Y-122210000D03*
X169760000Y-124750000D03*
X167220000Y-122210000D03*
X167220000Y-124750000D03*
X164680000Y-122210000D03*
X164680000Y-124750000D03*
X162140000Y-122210000D03*
X162140000Y-124750000D03*
X159600000Y-122210000D03*
X159600000Y-124750000D03*
X157060000Y-122210000D03*
X157060000Y-124750000D03*
X154520000Y-122210000D03*
X154520000Y-124750000D03*
X151980000Y-122210000D03*
X151980000Y-124750000D03*
X149440000Y-122210000D03*
X149440000Y-124750000D03*
X146900000Y-122210000D03*
X146900000Y-124750000D03*
X144360000Y-122210000D03*
X144360000Y-124750000D03*
X141820000Y-122210000D03*
X141820000Y-124750000D03*
X139280000Y-122210000D03*
X139280000Y-124750000D03*
X136740000Y-122210000D03*
X136740000Y-124750000D03*
%TD*%
M02*
