%TF.GenerationSoftware,KiCad,Pcbnew,9.0.7*%
%TF.CreationDate,2026-01-06T14:06:23-08:00*%
%TF.ProjectId,uno2pi,756e6f32-7069-42e6-9b69-6361645f7063,rev?*%
%TF.SameCoordinates,Original*%
%TF.FileFunction,Copper,L1,Top*%
%TF.FilePolarity,Positive*%
%FSLAX46Y46*%
G04 Gerber Fmt 4.6, Leading zero omitted, Abs format (unit mm)*
G04 Created by KiCad (PCBNEW 9.0.7) date 2026-01-06 14:06:23*
%MOMM*%
%LPD*%
G01*
G04 APERTURE LIST*
G04 Aperture macros list*
%AMRoundRect*
0 Rectangle with rounded corners*
0 $1 Rounding radius*
0 $2 $3 $4 $5 $6 $7 $8 $9 X,Y pos of 4 corners*
0 Add a 4 corners polygon primitive as box body*
4,1,4,$2,$3,$4,$5,$6,$7,$8,$9,$2,$3,0*
0 Add four circle primitives for the rounded corners*
1,1,$1+$1,$2,$3*
1,1,$1+$1,$4,$5*
1,1,$1+$1,$6,$7*
1,1,$1+$1,$8,$9*
0 Add four rect primitives between the rounded corners*
20,1,$1+$1,$2,$3,$4,$5,0*
20,1,$1+$1,$4,$5,$6,$7,0*
20,1,$1+$1,$6,$7,$8,$9,0*
20,1,$1+$1,$8,$9,$2,$3,0*%
G04 Aperture macros list end*
%TA.AperFunction,EtchedComponent*%
%ADD10C,0.010000*%
%TD*%
%TA.AperFunction,ComponentPad*%
%ADD11O,1.727200X1.727200*%
%TD*%
%TA.AperFunction,ComponentPad*%
%ADD12R,1.727200X1.727200*%
%TD*%
%TA.AperFunction,ComponentPad*%
%ADD13RoundRect,0.250000X-0.600000X0.600000X-0.600000X-0.600000X0.600000X-0.600000X0.600000X0.600000X0*%
%TD*%
%TA.AperFunction,ComponentPad*%
%ADD14C,1.700000*%
%TD*%
%TA.AperFunction,ViaPad*%
%ADD15C,0.600000*%
%TD*%
%TA.AperFunction,Conductor*%
%ADD16C,0.254000*%
%TD*%
G04 APERTURE END LIST*
D10*
%TO.C,G\u002A\u002A\u002A*%
X138220623Y-145594869D02*
X138252294Y-145595372D01*
X138279925Y-145596421D01*
X138305024Y-145598140D01*
X138329093Y-145600651D01*
X138353639Y-145604076D01*
X138380167Y-145608540D01*
X138402131Y-145612615D01*
X138460986Y-145625378D01*
X138522083Y-145641445D01*
X138582536Y-145659982D01*
X138639460Y-145680154D01*
X138650839Y-145684577D01*
X138694017Y-145701770D01*
X138736392Y-145718908D01*
X138778350Y-145736170D01*
X138820280Y-145753737D01*
X138862569Y-145771789D01*
X138905604Y-145790507D01*
X138949773Y-145810071D01*
X138995465Y-145830662D01*
X139043066Y-145852459D01*
X139092964Y-145875644D01*
X139145547Y-145900397D01*
X139201203Y-145926899D01*
X139260318Y-145955328D01*
X139323282Y-145985867D01*
X139390480Y-146018696D01*
X139462302Y-146053994D01*
X139539135Y-146091943D01*
X139621366Y-146132723D01*
X139709383Y-146176514D01*
X139732103Y-146187837D01*
X139810383Y-146226781D01*
X139882902Y-146262680D01*
X139950149Y-146295761D01*
X140012615Y-146326248D01*
X140070789Y-146354367D01*
X140125162Y-146380345D01*
X140176224Y-146404406D01*
X140224465Y-146426778D01*
X140270375Y-146447685D01*
X140314444Y-146467353D01*
X140357162Y-146486008D01*
X140399019Y-146503876D01*
X140440506Y-146521182D01*
X140482112Y-146538153D01*
X140524328Y-146555013D01*
X140557603Y-146568081D01*
X140581126Y-146577318D01*
X140602519Y-146585837D01*
X140620888Y-146593273D01*
X140635343Y-146599260D01*
X140644991Y-146603435D01*
X140648932Y-146605424D01*
X140648399Y-146609519D01*
X140643187Y-146617537D01*
X140633939Y-146628768D01*
X140621300Y-146642504D01*
X140605912Y-146658036D01*
X140588419Y-146674655D01*
X140575378Y-146686457D01*
X140507399Y-146742558D01*
X140432964Y-146796053D01*
X140352194Y-146846886D01*
X140265211Y-146895000D01*
X140172138Y-146940338D01*
X140073097Y-146982843D01*
X139968209Y-147022458D01*
X139857598Y-147059127D01*
X139741385Y-147092792D01*
X139654492Y-147115096D01*
X139553897Y-147138338D01*
X139458909Y-147157667D01*
X139369281Y-147173103D01*
X139284761Y-147184668D01*
X139205101Y-147192380D01*
X139130051Y-147196262D01*
X139059363Y-147196335D01*
X138992787Y-147192618D01*
X138930074Y-147185132D01*
X138892282Y-147178460D01*
X138831650Y-147163548D01*
X138776294Y-147144167D01*
X138726286Y-147120390D01*
X138681699Y-147092291D01*
X138642604Y-147059942D01*
X138609073Y-147023417D01*
X138581179Y-146982788D01*
X138558995Y-146938129D01*
X138542592Y-146889513D01*
X138532042Y-146837014D01*
X138529103Y-146810740D01*
X138528285Y-146799633D01*
X138527349Y-146791498D01*
X138525311Y-146785794D01*
X138521191Y-146781978D01*
X138514006Y-146779510D01*
X138502775Y-146777846D01*
X138486515Y-146776446D01*
X138464245Y-146774767D01*
X138463867Y-146774737D01*
X138436315Y-146772510D01*
X138415144Y-146770616D01*
X138399691Y-146768966D01*
X138389294Y-146767473D01*
X138383290Y-146766049D01*
X138381017Y-146764607D01*
X138381118Y-146763774D01*
X138379173Y-146762465D01*
X138372339Y-146762240D01*
X138362668Y-146762914D01*
X138352210Y-146764297D01*
X138343017Y-146766203D01*
X138338631Y-146767659D01*
X138333123Y-146769176D01*
X138321816Y-146771636D01*
X138305869Y-146774808D01*
X138286441Y-146778465D01*
X138264689Y-146782378D01*
X138259256Y-146783329D01*
X138177770Y-146796836D01*
X138100354Y-146808209D01*
X138024466Y-146817787D01*
X137947567Y-146825909D01*
X137924117Y-146828094D01*
X137901687Y-146829688D01*
X137874481Y-146830921D01*
X137843852Y-146831793D01*
X137811151Y-146832304D01*
X137777729Y-146832452D01*
X137744938Y-146832238D01*
X137714130Y-146831661D01*
X137686655Y-146830720D01*
X137663866Y-146829415D01*
X137650714Y-146828202D01*
X137577886Y-146818547D01*
X137507029Y-146806660D01*
X137436268Y-146792149D01*
X137363727Y-146774622D01*
X137287531Y-146753690D01*
X137272057Y-146749168D01*
X137249443Y-146742375D01*
X137232777Y-146737022D01*
X137221182Y-146732759D01*
X137213778Y-146729238D01*
X137209690Y-146726109D01*
X137208257Y-146723768D01*
X137207291Y-146718655D01*
X137205709Y-146707361D01*
X137203610Y-146690725D01*
X137201095Y-146669583D01*
X137198263Y-146644775D01*
X137195213Y-146617138D01*
X137192118Y-146588192D01*
X137188521Y-146554199D01*
X137185635Y-146526557D01*
X137183512Y-146504591D01*
X137182201Y-146487630D01*
X137181753Y-146474998D01*
X137182218Y-146466023D01*
X137183647Y-146460030D01*
X137186090Y-146456347D01*
X137189597Y-146454299D01*
X137194218Y-146453213D01*
X137200005Y-146452415D01*
X137202291Y-146452083D01*
X137213537Y-146450054D01*
X137230589Y-146446597D01*
X137252393Y-146441951D01*
X137277900Y-146436355D01*
X137306058Y-146430049D01*
X137335815Y-146423271D01*
X137366121Y-146416261D01*
X137395925Y-146409257D01*
X137424175Y-146402500D01*
X137449820Y-146396227D01*
X137469033Y-146391393D01*
X137571662Y-146364034D01*
X137667653Y-146336197D01*
X137757413Y-146307745D01*
X137841353Y-146278542D01*
X137919880Y-146248450D01*
X137993403Y-146217334D01*
X138005256Y-146212013D01*
X138075930Y-146177560D01*
X138147900Y-146137822D01*
X138219446Y-146093892D01*
X138288848Y-146046866D01*
X138354390Y-145997837D01*
X138398603Y-145961586D01*
X138416265Y-145946223D01*
X138434598Y-145929812D01*
X138452884Y-145913044D01*
X138470406Y-145896610D01*
X138486449Y-145881201D01*
X138500295Y-145867509D01*
X138511227Y-145856224D01*
X138518529Y-145848038D01*
X138521483Y-145843641D01*
X138521419Y-145843168D01*
X138515314Y-145839919D01*
X138503337Y-145835597D01*
X138486547Y-145830463D01*
X138466001Y-145824780D01*
X138442756Y-145818811D01*
X138417870Y-145812819D01*
X138392399Y-145807065D01*
X138367401Y-145801813D01*
X138343932Y-145797326D01*
X138323052Y-145793865D01*
X138322756Y-145793821D01*
X138267713Y-145787277D01*
X138213379Y-145784223D01*
X138158239Y-145784693D01*
X138100781Y-145788723D01*
X138039489Y-145796348D01*
X138009661Y-145801061D01*
X137916404Y-145819650D01*
X137826971Y-145843507D01*
X137741577Y-145872525D01*
X137660434Y-145906597D01*
X137583757Y-145945618D01*
X137511758Y-145989481D01*
X137444651Y-146038080D01*
X137382649Y-146091309D01*
X137339149Y-146134715D01*
X137296774Y-146183356D01*
X137258736Y-146234133D01*
X137225693Y-146286030D01*
X137198305Y-146338030D01*
X137180856Y-146379155D01*
X137175880Y-146391569D01*
X137171256Y-146401737D01*
X137167989Y-146407452D01*
X137164732Y-146410758D01*
X137156831Y-146418470D01*
X137144761Y-146430134D01*
X137128993Y-146445296D01*
X137110001Y-146463504D01*
X137088257Y-146484304D01*
X137064234Y-146507242D01*
X137038405Y-146531865D01*
X137019242Y-146550109D01*
X136992541Y-146575537D01*
X136967408Y-146599512D01*
X136944304Y-146621594D01*
X136923686Y-146641340D01*
X136906013Y-146658313D01*
X136891745Y-146672070D01*
X136881339Y-146682171D01*
X136875255Y-146688176D01*
X136873807Y-146689722D01*
X136876772Y-146691499D01*
X136885584Y-146695852D01*
X136899636Y-146702501D01*
X136918323Y-146711168D01*
X136941036Y-146721573D01*
X136967172Y-146733437D01*
X136996123Y-146746483D01*
X137027283Y-146760430D01*
X137034668Y-146763723D01*
X137196326Y-146835742D01*
X137213181Y-146896014D01*
X137221294Y-146923999D01*
X137231141Y-146956334D01*
X137242116Y-146991147D01*
X137253611Y-147026562D01*
X137265017Y-147060707D01*
X137275727Y-147091707D01*
X137284711Y-147116557D01*
X137290159Y-147130243D01*
X137294679Y-147138717D01*
X137299336Y-147143533D01*
X137305030Y-147146192D01*
X137312332Y-147147358D01*
X137325653Y-147148296D01*
X137343960Y-147149009D01*
X137366220Y-147149497D01*
X137391401Y-147149765D01*
X137418469Y-147149813D01*
X137446392Y-147149645D01*
X137474137Y-147149261D01*
X137500672Y-147148666D01*
X137524963Y-147147860D01*
X137545977Y-147146846D01*
X137562519Y-147145641D01*
X137725461Y-147128012D01*
X137825339Y-147114638D01*
X137868059Y-147108200D01*
X137904878Y-147101900D01*
X137936934Y-147095424D01*
X137965367Y-147088461D01*
X137991316Y-147080699D01*
X138015921Y-147071825D01*
X138040322Y-147061527D01*
X138065657Y-147049494D01*
X138068756Y-147047947D01*
X138124315Y-147016613D01*
X138178864Y-146979011D01*
X138231433Y-146935928D01*
X138281052Y-146888153D01*
X138321514Y-146842842D01*
X138339547Y-146821119D01*
X138341948Y-146846369D01*
X138348975Y-146893791D01*
X138360881Y-146942968D01*
X138377002Y-146992024D01*
X138396677Y-147039082D01*
X138419242Y-147082263D01*
X138432919Y-147104089D01*
X138470540Y-147153806D01*
X138513341Y-147198803D01*
X138561237Y-147239051D01*
X138614137Y-147274523D01*
X138671957Y-147305189D01*
X138734606Y-147331023D01*
X138801999Y-147351997D01*
X138874048Y-147368082D01*
X138950665Y-147379251D01*
X139031762Y-147385476D01*
X139117253Y-147386729D01*
X139207048Y-147382982D01*
X139285839Y-147375939D01*
X139358982Y-147366622D01*
X139437075Y-147354309D01*
X139518821Y-147339281D01*
X139602924Y-147321824D01*
X139688087Y-147302218D01*
X139773013Y-147280749D01*
X139856405Y-147257699D01*
X139933186Y-147234545D01*
X140030660Y-147201912D01*
X140124986Y-147166470D01*
X140215813Y-147128429D01*
X140302792Y-147088003D01*
X140385572Y-147045400D01*
X140463804Y-147000834D01*
X140537137Y-146954514D01*
X140605221Y-146906653D01*
X140667706Y-146857461D01*
X140724241Y-146807150D01*
X140774478Y-146755931D01*
X140818065Y-146704015D01*
X140822716Y-146697903D01*
X140832332Y-146685476D01*
X140839092Y-146677904D01*
X140844129Y-146674222D01*
X140848577Y-146673464D01*
X140850926Y-146673879D01*
X140870363Y-146678188D01*
X140895440Y-146682870D01*
X140924768Y-146687722D01*
X140956957Y-146692537D01*
X140990615Y-146697113D01*
X141024352Y-146701243D01*
X141056778Y-146704723D01*
X141067367Y-146705732D01*
X141099105Y-146708262D01*
X141131088Y-146709984D01*
X141163991Y-146710867D01*
X141198490Y-146710880D01*
X141235260Y-146709994D01*
X141274975Y-146708177D01*
X141318313Y-146705399D01*
X141365946Y-146701629D01*
X141418552Y-146696837D01*
X141476805Y-146690992D01*
X141538325Y-146684400D01*
X141627365Y-146674037D01*
X141722839Y-146661818D01*
X141824393Y-146647807D01*
X141931669Y-146632069D01*
X142044315Y-146614668D01*
X142161974Y-146595667D01*
X142284291Y-146575132D01*
X142410912Y-146553126D01*
X142541480Y-146529714D01*
X142675641Y-146504960D01*
X142813040Y-146478928D01*
X142953321Y-146451682D01*
X143096130Y-146423286D01*
X143241111Y-146393806D01*
X143387909Y-146363305D01*
X143536169Y-146331846D01*
X143685535Y-146299496D01*
X143773172Y-146280208D01*
X143817666Y-146270354D01*
X143855884Y-146262067D01*
X143888458Y-146255480D01*
X143916023Y-146250728D01*
X143939211Y-146247946D01*
X143958655Y-146247268D01*
X143974988Y-146248828D01*
X143988842Y-146252762D01*
X144000852Y-146259204D01*
X144011649Y-146268288D01*
X144021867Y-146280148D01*
X144032138Y-146294920D01*
X144043096Y-146312738D01*
X144055374Y-146333736D01*
X144059653Y-146341095D01*
X144096922Y-146406872D01*
X144131854Y-146472122D01*
X144164055Y-146536014D01*
X144193129Y-146597715D01*
X144218681Y-146656394D01*
X144240317Y-146711219D01*
X144254182Y-146750659D01*
X144269642Y-146803072D01*
X144280358Y-146851984D01*
X144286358Y-146897167D01*
X144287669Y-146938394D01*
X144284319Y-146975435D01*
X144276334Y-147008062D01*
X144263743Y-147036047D01*
X144246572Y-147059162D01*
X144224849Y-147077178D01*
X144214324Y-147083195D01*
X144204191Y-147087954D01*
X144193141Y-147092324D01*
X144180815Y-147096333D01*
X144166857Y-147100009D01*
X144150909Y-147103381D01*
X144132613Y-147106477D01*
X144111614Y-147109324D01*
X144087552Y-147111952D01*
X144060072Y-147114387D01*
X144028815Y-147116659D01*
X143993425Y-147118795D01*
X143953543Y-147120823D01*
X143908813Y-147122773D01*
X143858877Y-147124671D01*
X143803378Y-147126546D01*
X143741959Y-147128426D01*
X143674262Y-147130340D01*
X143599931Y-147132315D01*
X143586200Y-147132669D01*
X143464123Y-147136007D01*
X143348544Y-147139586D01*
X143238907Y-147143439D01*
X143134656Y-147147594D01*
X143035237Y-147152084D01*
X142940095Y-147156938D01*
X142848674Y-147162188D01*
X142760419Y-147167864D01*
X142674774Y-147173996D01*
X142591185Y-147180616D01*
X142509097Y-147187754D01*
X142427954Y-147195440D01*
X142400867Y-147198145D01*
X142272167Y-147211977D01*
X142147702Y-147227073D01*
X142026723Y-147243605D01*
X141908481Y-147261741D01*
X141792228Y-147281651D01*
X141677216Y-147303505D01*
X141562696Y-147327471D01*
X141447921Y-147353720D01*
X141332141Y-147382420D01*
X141214608Y-147413742D01*
X141094573Y-147447854D01*
X140971290Y-147484927D01*
X140844008Y-147525129D01*
X140711980Y-147568630D01*
X140606992Y-147604351D01*
X140557132Y-147621859D01*
X140509600Y-147639285D01*
X140463727Y-147656950D01*
X140418843Y-147675174D01*
X140374280Y-147694276D01*
X140329367Y-147714579D01*
X140283435Y-147736401D01*
X140235815Y-147760063D01*
X140185837Y-147785885D01*
X140132833Y-147814188D01*
X140076132Y-147845292D01*
X140015065Y-147879517D01*
X139948963Y-147917184D01*
X139927894Y-147929293D01*
X139869273Y-147963023D01*
X139816302Y-147993451D01*
X139768534Y-148020825D01*
X139725521Y-148045391D01*
X139686816Y-148067396D01*
X139651971Y-148087087D01*
X139620538Y-148104710D01*
X139592070Y-148120514D01*
X139566119Y-148134744D01*
X139542237Y-148147648D01*
X139519977Y-148159472D01*
X139498892Y-148170464D01*
X139478532Y-148180870D01*
X139458452Y-148190938D01*
X139438203Y-148200913D01*
X139417338Y-148211044D01*
X139415506Y-148211928D01*
X139348067Y-148243365D01*
X139284450Y-148270619D01*
X139223282Y-148294082D01*
X139163192Y-148314145D01*
X139102809Y-148331202D01*
X139040760Y-148345644D01*
X138975674Y-148357864D01*
X138906178Y-148368254D01*
X138841339Y-148376079D01*
X138800352Y-148379839D01*
X138754406Y-148382799D01*
X138705558Y-148384905D01*
X138655863Y-148386101D01*
X138607379Y-148386332D01*
X138562162Y-148385544D01*
X138532658Y-148384308D01*
X138453112Y-148377665D01*
X138372656Y-148366543D01*
X138292478Y-148351243D01*
X138213767Y-148332063D01*
X138137711Y-148309301D01*
X138065498Y-148283256D01*
X137998316Y-148254227D01*
X137980208Y-148245425D01*
X137899228Y-148201172D01*
X137820006Y-148150208D01*
X137742682Y-148092693D01*
X137667395Y-148028783D01*
X137594286Y-147958636D01*
X137523495Y-147882410D01*
X137455160Y-147800263D01*
X137389423Y-147712352D01*
X137326422Y-147618836D01*
X137266297Y-147519870D01*
X137209189Y-147415614D01*
X137164097Y-147325001D01*
X137145759Y-147285087D01*
X137128137Y-147243722D01*
X137110726Y-147199614D01*
X137093019Y-147151472D01*
X137074510Y-147098004D01*
X137070165Y-147085050D01*
X137062496Y-147061604D01*
X137054393Y-147036014D01*
X137046208Y-147009473D01*
X137038293Y-146983173D01*
X137031001Y-146958308D01*
X137024685Y-146936069D01*
X137019696Y-146917648D01*
X137016387Y-146904240D01*
X137015578Y-146900358D01*
X137013409Y-146888796D01*
X136808795Y-146806228D01*
X136772815Y-146791683D01*
X136738807Y-146777885D01*
X136707332Y-146765066D01*
X136678948Y-146753454D01*
X136654214Y-146743280D01*
X136633690Y-146734774D01*
X136617934Y-146728167D01*
X136607507Y-146723689D01*
X136602968Y-146721569D01*
X136602819Y-146721456D01*
X136605160Y-146718806D01*
X136612362Y-146711850D01*
X136624012Y-146700963D01*
X136639695Y-146686524D01*
X136658997Y-146668908D01*
X136681504Y-146648494D01*
X136706801Y-146625659D01*
X136734474Y-146600779D01*
X136764109Y-146574232D01*
X136789486Y-146551569D01*
X136825502Y-146519440D01*
X136856616Y-146491646D01*
X136883198Y-146467833D01*
X136905615Y-146447648D01*
X136924238Y-146430735D01*
X136939435Y-146416742D01*
X136951576Y-146405313D01*
X136961030Y-146396094D01*
X136968165Y-146388731D01*
X136973352Y-146382871D01*
X136976959Y-146378158D01*
X136979356Y-146374239D01*
X136980912Y-146370759D01*
X136981995Y-146367365D01*
X136982179Y-146366697D01*
X136988588Y-146346148D01*
X136997690Y-146321198D01*
X137008760Y-146293616D01*
X137021074Y-146265175D01*
X137033905Y-146237643D01*
X137040500Y-146224354D01*
X137072949Y-146166145D01*
X137110177Y-146110020D01*
X137152866Y-146055049D01*
X137201699Y-146000302D01*
X137214842Y-145986649D01*
X137270351Y-145933110D01*
X137327631Y-145884627D01*
X137387885Y-145840331D01*
X137452317Y-145799357D01*
X137522131Y-145760837D01*
X137543117Y-145750220D01*
X137611171Y-145718348D01*
X137679185Y-145690513D01*
X137748387Y-145666341D01*
X137820007Y-145645459D01*
X137895272Y-145627492D01*
X137975412Y-145612068D01*
X138021880Y-145604552D01*
X138041716Y-145601632D01*
X138059044Y-145599366D01*
X138075261Y-145597670D01*
X138091762Y-145596459D01*
X138109942Y-145595648D01*
X138131198Y-145595155D01*
X138156924Y-145594894D01*
X138183408Y-145594791D01*
X138220623Y-145594869D01*
%TA.AperFunction,EtchedComponent*%
G36*
X138220623Y-145594869D02*
G01*
X138252294Y-145595372D01*
X138279925Y-145596421D01*
X138305024Y-145598140D01*
X138329093Y-145600651D01*
X138353639Y-145604076D01*
X138380167Y-145608540D01*
X138402131Y-145612615D01*
X138460986Y-145625378D01*
X138522083Y-145641445D01*
X138582536Y-145659982D01*
X138639460Y-145680154D01*
X138650839Y-145684577D01*
X138694017Y-145701770D01*
X138736392Y-145718908D01*
X138778350Y-145736170D01*
X138820280Y-145753737D01*
X138862569Y-145771789D01*
X138905604Y-145790507D01*
X138949773Y-145810071D01*
X138995465Y-145830662D01*
X139043066Y-145852459D01*
X139092964Y-145875644D01*
X139145547Y-145900397D01*
X139201203Y-145926899D01*
X139260318Y-145955328D01*
X139323282Y-145985867D01*
X139390480Y-146018696D01*
X139462302Y-146053994D01*
X139539135Y-146091943D01*
X139621366Y-146132723D01*
X139709383Y-146176514D01*
X139732103Y-146187837D01*
X139810383Y-146226781D01*
X139882902Y-146262680D01*
X139950149Y-146295761D01*
X140012615Y-146326248D01*
X140070789Y-146354367D01*
X140125162Y-146380345D01*
X140176224Y-146404406D01*
X140224465Y-146426778D01*
X140270375Y-146447685D01*
X140314444Y-146467353D01*
X140357162Y-146486008D01*
X140399019Y-146503876D01*
X140440506Y-146521182D01*
X140482112Y-146538153D01*
X140524328Y-146555013D01*
X140557603Y-146568081D01*
X140581126Y-146577318D01*
X140602519Y-146585837D01*
X140620888Y-146593273D01*
X140635343Y-146599260D01*
X140644991Y-146603435D01*
X140648932Y-146605424D01*
X140648399Y-146609519D01*
X140643187Y-146617537D01*
X140633939Y-146628768D01*
X140621300Y-146642504D01*
X140605912Y-146658036D01*
X140588419Y-146674655D01*
X140575378Y-146686457D01*
X140507399Y-146742558D01*
X140432964Y-146796053D01*
X140352194Y-146846886D01*
X140265211Y-146895000D01*
X140172138Y-146940338D01*
X140073097Y-146982843D01*
X139968209Y-147022458D01*
X139857598Y-147059127D01*
X139741385Y-147092792D01*
X139654492Y-147115096D01*
X139553897Y-147138338D01*
X139458909Y-147157667D01*
X139369281Y-147173103D01*
X139284761Y-147184668D01*
X139205101Y-147192380D01*
X139130051Y-147196262D01*
X139059363Y-147196335D01*
X138992787Y-147192618D01*
X138930074Y-147185132D01*
X138892282Y-147178460D01*
X138831650Y-147163548D01*
X138776294Y-147144167D01*
X138726286Y-147120390D01*
X138681699Y-147092291D01*
X138642604Y-147059942D01*
X138609073Y-147023417D01*
X138581179Y-146982788D01*
X138558995Y-146938129D01*
X138542592Y-146889513D01*
X138532042Y-146837014D01*
X138529103Y-146810740D01*
X138528285Y-146799633D01*
X138527349Y-146791498D01*
X138525311Y-146785794D01*
X138521191Y-146781978D01*
X138514006Y-146779510D01*
X138502775Y-146777846D01*
X138486515Y-146776446D01*
X138464245Y-146774767D01*
X138463867Y-146774737D01*
X138436315Y-146772510D01*
X138415144Y-146770616D01*
X138399691Y-146768966D01*
X138389294Y-146767473D01*
X138383290Y-146766049D01*
X138381017Y-146764607D01*
X138381118Y-146763774D01*
X138379173Y-146762465D01*
X138372339Y-146762240D01*
X138362668Y-146762914D01*
X138352210Y-146764297D01*
X138343017Y-146766203D01*
X138338631Y-146767659D01*
X138333123Y-146769176D01*
X138321816Y-146771636D01*
X138305869Y-146774808D01*
X138286441Y-146778465D01*
X138264689Y-146782378D01*
X138259256Y-146783329D01*
X138177770Y-146796836D01*
X138100354Y-146808209D01*
X138024466Y-146817787D01*
X137947567Y-146825909D01*
X137924117Y-146828094D01*
X137901687Y-146829688D01*
X137874481Y-146830921D01*
X137843852Y-146831793D01*
X137811151Y-146832304D01*
X137777729Y-146832452D01*
X137744938Y-146832238D01*
X137714130Y-146831661D01*
X137686655Y-146830720D01*
X137663866Y-146829415D01*
X137650714Y-146828202D01*
X137577886Y-146818547D01*
X137507029Y-146806660D01*
X137436268Y-146792149D01*
X137363727Y-146774622D01*
X137287531Y-146753690D01*
X137272057Y-146749168D01*
X137249443Y-146742375D01*
X137232777Y-146737022D01*
X137221182Y-146732759D01*
X137213778Y-146729238D01*
X137209690Y-146726109D01*
X137208257Y-146723768D01*
X137207291Y-146718655D01*
X137205709Y-146707361D01*
X137203610Y-146690725D01*
X137201095Y-146669583D01*
X137198263Y-146644775D01*
X137195213Y-146617138D01*
X137192118Y-146588192D01*
X137188521Y-146554199D01*
X137185635Y-146526557D01*
X137183512Y-146504591D01*
X137182201Y-146487630D01*
X137181753Y-146474998D01*
X137182218Y-146466023D01*
X137183647Y-146460030D01*
X137186090Y-146456347D01*
X137189597Y-146454299D01*
X137194218Y-146453213D01*
X137200005Y-146452415D01*
X137202291Y-146452083D01*
X137213537Y-146450054D01*
X137230589Y-146446597D01*
X137252393Y-146441951D01*
X137277900Y-146436355D01*
X137306058Y-146430049D01*
X137335815Y-146423271D01*
X137366121Y-146416261D01*
X137395925Y-146409257D01*
X137424175Y-146402500D01*
X137449820Y-146396227D01*
X137469033Y-146391393D01*
X137571662Y-146364034D01*
X137667653Y-146336197D01*
X137757413Y-146307745D01*
X137841353Y-146278542D01*
X137919880Y-146248450D01*
X137993403Y-146217334D01*
X138005256Y-146212013D01*
X138075930Y-146177560D01*
X138147900Y-146137822D01*
X138219446Y-146093892D01*
X138288848Y-146046866D01*
X138354390Y-145997837D01*
X138398603Y-145961586D01*
X138416265Y-145946223D01*
X138434598Y-145929812D01*
X138452884Y-145913044D01*
X138470406Y-145896610D01*
X138486449Y-145881201D01*
X138500295Y-145867509D01*
X138511227Y-145856224D01*
X138518529Y-145848038D01*
X138521483Y-145843641D01*
X138521419Y-145843168D01*
X138515314Y-145839919D01*
X138503337Y-145835597D01*
X138486547Y-145830463D01*
X138466001Y-145824780D01*
X138442756Y-145818811D01*
X138417870Y-145812819D01*
X138392399Y-145807065D01*
X138367401Y-145801813D01*
X138343932Y-145797326D01*
X138323052Y-145793865D01*
X138322756Y-145793821D01*
X138267713Y-145787277D01*
X138213379Y-145784223D01*
X138158239Y-145784693D01*
X138100781Y-145788723D01*
X138039489Y-145796348D01*
X138009661Y-145801061D01*
X137916404Y-145819650D01*
X137826971Y-145843507D01*
X137741577Y-145872525D01*
X137660434Y-145906597D01*
X137583757Y-145945618D01*
X137511758Y-145989481D01*
X137444651Y-146038080D01*
X137382649Y-146091309D01*
X137339149Y-146134715D01*
X137296774Y-146183356D01*
X137258736Y-146234133D01*
X137225693Y-146286030D01*
X137198305Y-146338030D01*
X137180856Y-146379155D01*
X137175880Y-146391569D01*
X137171256Y-146401737D01*
X137167989Y-146407452D01*
X137164732Y-146410758D01*
X137156831Y-146418470D01*
X137144761Y-146430134D01*
X137128993Y-146445296D01*
X137110001Y-146463504D01*
X137088257Y-146484304D01*
X137064234Y-146507242D01*
X137038405Y-146531865D01*
X137019242Y-146550109D01*
X136992541Y-146575537D01*
X136967408Y-146599512D01*
X136944304Y-146621594D01*
X136923686Y-146641340D01*
X136906013Y-146658313D01*
X136891745Y-146672070D01*
X136881339Y-146682171D01*
X136875255Y-146688176D01*
X136873807Y-146689722D01*
X136876772Y-146691499D01*
X136885584Y-146695852D01*
X136899636Y-146702501D01*
X136918323Y-146711168D01*
X136941036Y-146721573D01*
X136967172Y-146733437D01*
X136996123Y-146746483D01*
X137027283Y-146760430D01*
X137034668Y-146763723D01*
X137196326Y-146835742D01*
X137213181Y-146896014D01*
X137221294Y-146923999D01*
X137231141Y-146956334D01*
X137242116Y-146991147D01*
X137253611Y-147026562D01*
X137265017Y-147060707D01*
X137275727Y-147091707D01*
X137284711Y-147116557D01*
X137290159Y-147130243D01*
X137294679Y-147138717D01*
X137299336Y-147143533D01*
X137305030Y-147146192D01*
X137312332Y-147147358D01*
X137325653Y-147148296D01*
X137343960Y-147149009D01*
X137366220Y-147149497D01*
X137391401Y-147149765D01*
X137418469Y-147149813D01*
X137446392Y-147149645D01*
X137474137Y-147149261D01*
X137500672Y-147148666D01*
X137524963Y-147147860D01*
X137545977Y-147146846D01*
X137562519Y-147145641D01*
X137725461Y-147128012D01*
X137825339Y-147114638D01*
X137868059Y-147108200D01*
X137904878Y-147101900D01*
X137936934Y-147095424D01*
X137965367Y-147088461D01*
X137991316Y-147080699D01*
X138015921Y-147071825D01*
X138040322Y-147061527D01*
X138065657Y-147049494D01*
X138068756Y-147047947D01*
X138124315Y-147016613D01*
X138178864Y-146979011D01*
X138231433Y-146935928D01*
X138281052Y-146888153D01*
X138321514Y-146842842D01*
X138339547Y-146821119D01*
X138341948Y-146846369D01*
X138348975Y-146893791D01*
X138360881Y-146942968D01*
X138377002Y-146992024D01*
X138396677Y-147039082D01*
X138419242Y-147082263D01*
X138432919Y-147104089D01*
X138470540Y-147153806D01*
X138513341Y-147198803D01*
X138561237Y-147239051D01*
X138614137Y-147274523D01*
X138671957Y-147305189D01*
X138734606Y-147331023D01*
X138801999Y-147351997D01*
X138874048Y-147368082D01*
X138950665Y-147379251D01*
X139031762Y-147385476D01*
X139117253Y-147386729D01*
X139207048Y-147382982D01*
X139285839Y-147375939D01*
X139358982Y-147366622D01*
X139437075Y-147354309D01*
X139518821Y-147339281D01*
X139602924Y-147321824D01*
X139688087Y-147302218D01*
X139773013Y-147280749D01*
X139856405Y-147257699D01*
X139933186Y-147234545D01*
X140030660Y-147201912D01*
X140124986Y-147166470D01*
X140215813Y-147128429D01*
X140302792Y-147088003D01*
X140385572Y-147045400D01*
X140463804Y-147000834D01*
X140537137Y-146954514D01*
X140605221Y-146906653D01*
X140667706Y-146857461D01*
X140724241Y-146807150D01*
X140774478Y-146755931D01*
X140818065Y-146704015D01*
X140822716Y-146697903D01*
X140832332Y-146685476D01*
X140839092Y-146677904D01*
X140844129Y-146674222D01*
X140848577Y-146673464D01*
X140850926Y-146673879D01*
X140870363Y-146678188D01*
X140895440Y-146682870D01*
X140924768Y-146687722D01*
X140956957Y-146692537D01*
X140990615Y-146697113D01*
X141024352Y-146701243D01*
X141056778Y-146704723D01*
X141067367Y-146705732D01*
X141099105Y-146708262D01*
X141131088Y-146709984D01*
X141163991Y-146710867D01*
X141198490Y-146710880D01*
X141235260Y-146709994D01*
X141274975Y-146708177D01*
X141318313Y-146705399D01*
X141365946Y-146701629D01*
X141418552Y-146696837D01*
X141476805Y-146690992D01*
X141538325Y-146684400D01*
X141627365Y-146674037D01*
X141722839Y-146661818D01*
X141824393Y-146647807D01*
X141931669Y-146632069D01*
X142044315Y-146614668D01*
X142161974Y-146595667D01*
X142284291Y-146575132D01*
X142410912Y-146553126D01*
X142541480Y-146529714D01*
X142675641Y-146504960D01*
X142813040Y-146478928D01*
X142953321Y-146451682D01*
X143096130Y-146423286D01*
X143241111Y-146393806D01*
X143387909Y-146363305D01*
X143536169Y-146331846D01*
X143685535Y-146299496D01*
X143773172Y-146280208D01*
X143817666Y-146270354D01*
X143855884Y-146262067D01*
X143888458Y-146255480D01*
X143916023Y-146250728D01*
X143939211Y-146247946D01*
X143958655Y-146247268D01*
X143974988Y-146248828D01*
X143988842Y-146252762D01*
X144000852Y-146259204D01*
X144011649Y-146268288D01*
X144021867Y-146280148D01*
X144032138Y-146294920D01*
X144043096Y-146312738D01*
X144055374Y-146333736D01*
X144059653Y-146341095D01*
X144096922Y-146406872D01*
X144131854Y-146472122D01*
X144164055Y-146536014D01*
X144193129Y-146597715D01*
X144218681Y-146656394D01*
X144240317Y-146711219D01*
X144254182Y-146750659D01*
X144269642Y-146803072D01*
X144280358Y-146851984D01*
X144286358Y-146897167D01*
X144287669Y-146938394D01*
X144284319Y-146975435D01*
X144276334Y-147008062D01*
X144263743Y-147036047D01*
X144246572Y-147059162D01*
X144224849Y-147077178D01*
X144214324Y-147083195D01*
X144204191Y-147087954D01*
X144193141Y-147092324D01*
X144180815Y-147096333D01*
X144166857Y-147100009D01*
X144150909Y-147103381D01*
X144132613Y-147106477D01*
X144111614Y-147109324D01*
X144087552Y-147111952D01*
X144060072Y-147114387D01*
X144028815Y-147116659D01*
X143993425Y-147118795D01*
X143953543Y-147120823D01*
X143908813Y-147122773D01*
X143858877Y-147124671D01*
X143803378Y-147126546D01*
X143741959Y-147128426D01*
X143674262Y-147130340D01*
X143599931Y-147132315D01*
X143586200Y-147132669D01*
X143464123Y-147136007D01*
X143348544Y-147139586D01*
X143238907Y-147143439D01*
X143134656Y-147147594D01*
X143035237Y-147152084D01*
X142940095Y-147156938D01*
X142848674Y-147162188D01*
X142760419Y-147167864D01*
X142674774Y-147173996D01*
X142591185Y-147180616D01*
X142509097Y-147187754D01*
X142427954Y-147195440D01*
X142400867Y-147198145D01*
X142272167Y-147211977D01*
X142147702Y-147227073D01*
X142026723Y-147243605D01*
X141908481Y-147261741D01*
X141792228Y-147281651D01*
X141677216Y-147303505D01*
X141562696Y-147327471D01*
X141447921Y-147353720D01*
X141332141Y-147382420D01*
X141214608Y-147413742D01*
X141094573Y-147447854D01*
X140971290Y-147484927D01*
X140844008Y-147525129D01*
X140711980Y-147568630D01*
X140606992Y-147604351D01*
X140557132Y-147621859D01*
X140509600Y-147639285D01*
X140463727Y-147656950D01*
X140418843Y-147675174D01*
X140374280Y-147694276D01*
X140329367Y-147714579D01*
X140283435Y-147736401D01*
X140235815Y-147760063D01*
X140185837Y-147785885D01*
X140132833Y-147814188D01*
X140076132Y-147845292D01*
X140015065Y-147879517D01*
X139948963Y-147917184D01*
X139927894Y-147929293D01*
X139869273Y-147963023D01*
X139816302Y-147993451D01*
X139768534Y-148020825D01*
X139725521Y-148045391D01*
X139686816Y-148067396D01*
X139651971Y-148087087D01*
X139620538Y-148104710D01*
X139592070Y-148120514D01*
X139566119Y-148134744D01*
X139542237Y-148147648D01*
X139519977Y-148159472D01*
X139498892Y-148170464D01*
X139478532Y-148180870D01*
X139458452Y-148190938D01*
X139438203Y-148200913D01*
X139417338Y-148211044D01*
X139415506Y-148211928D01*
X139348067Y-148243365D01*
X139284450Y-148270619D01*
X139223282Y-148294082D01*
X139163192Y-148314145D01*
X139102809Y-148331202D01*
X139040760Y-148345644D01*
X138975674Y-148357864D01*
X138906178Y-148368254D01*
X138841339Y-148376079D01*
X138800352Y-148379839D01*
X138754406Y-148382799D01*
X138705558Y-148384905D01*
X138655863Y-148386101D01*
X138607379Y-148386332D01*
X138562162Y-148385544D01*
X138532658Y-148384308D01*
X138453112Y-148377665D01*
X138372656Y-148366543D01*
X138292478Y-148351243D01*
X138213767Y-148332063D01*
X138137711Y-148309301D01*
X138065498Y-148283256D01*
X137998316Y-148254227D01*
X137980208Y-148245425D01*
X137899228Y-148201172D01*
X137820006Y-148150208D01*
X137742682Y-148092693D01*
X137667395Y-148028783D01*
X137594286Y-147958636D01*
X137523495Y-147882410D01*
X137455160Y-147800263D01*
X137389423Y-147712352D01*
X137326422Y-147618836D01*
X137266297Y-147519870D01*
X137209189Y-147415614D01*
X137164097Y-147325001D01*
X137145759Y-147285087D01*
X137128137Y-147243722D01*
X137110726Y-147199614D01*
X137093019Y-147151472D01*
X137074510Y-147098004D01*
X137070165Y-147085050D01*
X137062496Y-147061604D01*
X137054393Y-147036014D01*
X137046208Y-147009473D01*
X137038293Y-146983173D01*
X137031001Y-146958308D01*
X137024685Y-146936069D01*
X137019696Y-146917648D01*
X137016387Y-146904240D01*
X137015578Y-146900358D01*
X137013409Y-146888796D01*
X136808795Y-146806228D01*
X136772815Y-146791683D01*
X136738807Y-146777885D01*
X136707332Y-146765066D01*
X136678948Y-146753454D01*
X136654214Y-146743280D01*
X136633690Y-146734774D01*
X136617934Y-146728167D01*
X136607507Y-146723689D01*
X136602968Y-146721569D01*
X136602819Y-146721456D01*
X136605160Y-146718806D01*
X136612362Y-146711850D01*
X136624012Y-146700963D01*
X136639695Y-146686524D01*
X136658997Y-146668908D01*
X136681504Y-146648494D01*
X136706801Y-146625659D01*
X136734474Y-146600779D01*
X136764109Y-146574232D01*
X136789486Y-146551569D01*
X136825502Y-146519440D01*
X136856616Y-146491646D01*
X136883198Y-146467833D01*
X136905615Y-146447648D01*
X136924238Y-146430735D01*
X136939435Y-146416742D01*
X136951576Y-146405313D01*
X136961030Y-146396094D01*
X136968165Y-146388731D01*
X136973352Y-146382871D01*
X136976959Y-146378158D01*
X136979356Y-146374239D01*
X136980912Y-146370759D01*
X136981995Y-146367365D01*
X136982179Y-146366697D01*
X136988588Y-146346148D01*
X136997690Y-146321198D01*
X137008760Y-146293616D01*
X137021074Y-146265175D01*
X137033905Y-146237643D01*
X137040500Y-146224354D01*
X137072949Y-146166145D01*
X137110177Y-146110020D01*
X137152866Y-146055049D01*
X137201699Y-146000302D01*
X137214842Y-145986649D01*
X137270351Y-145933110D01*
X137327631Y-145884627D01*
X137387885Y-145840331D01*
X137452317Y-145799357D01*
X137522131Y-145760837D01*
X137543117Y-145750220D01*
X137611171Y-145718348D01*
X137679185Y-145690513D01*
X137748387Y-145666341D01*
X137820007Y-145645459D01*
X137895272Y-145627492D01*
X137975412Y-145612068D01*
X138021880Y-145604552D01*
X138041716Y-145601632D01*
X138059044Y-145599366D01*
X138075261Y-145597670D01*
X138091762Y-145596459D01*
X138109942Y-145595648D01*
X138131198Y-145595155D01*
X138156924Y-145594894D01*
X138183408Y-145594791D01*
X138220623Y-145594869D01*
G37*
%TD.AperFunction*%
%TD*%
D11*
%TO.P,A1,*%
%TO.N,*%
X147940000Y-149000000D03*
%TO.P,A1,3V3,3.3V*%
%TO.N,unconnected-(A1-3.3V-Pad3V3)*%
X155560000Y-149000000D03*
%TO.P,A1,5V1,5V*%
%TO.N,unconnected-(A1-5V-Pad5V1)*%
X158100000Y-149000000D03*
%TO.P,A1,A0,A0*%
%TO.N,/A0*%
X170800000Y-149000000D03*
%TO.P,A1,A1,A1*%
%TO.N,/A1*%
X173340000Y-149000000D03*
%TO.P,A1,A2,A2*%
%TO.N,/A2*%
X175880000Y-149000000D03*
%TO.P,A1,A3,A3*%
%TO.N,/A3*%
X178420000Y-149000000D03*
%TO.P,A1,A4,A4*%
%TO.N,/A4*%
X180960000Y-149000000D03*
%TO.P,A1,A5,A5*%
%TO.N,/A5*%
X183500000Y-149000000D03*
%TO.P,A1,AREF,AREF*%
%TO.N,/AREF*%
X143876000Y-100740000D03*
%TO.P,A1,D0,D0/RX*%
%TO.N,/D0*%
X183500000Y-100740000D03*
%TO.P,A1,D1,D1/TX*%
%TO.N,/D1*%
X180960000Y-100740000D03*
%TO.P,A1,D2,D2_INT0*%
%TO.N,/D2*%
X178420000Y-100740000D03*
%TO.P,A1,D3,D3_INT1*%
%TO.N,/D3*%
X175880000Y-100740000D03*
%TO.P,A1,D4,D4*%
%TO.N,/D4*%
X173340000Y-100740000D03*
%TO.P,A1,D5,D5*%
%TO.N,/D5*%
X170800000Y-100740000D03*
%TO.P,A1,D6,D6*%
%TO.N,/D6*%
X168260000Y-100740000D03*
%TO.P,A1,D7,D7*%
%TO.N,/D7*%
X165720000Y-100740000D03*
%TO.P,A1,D8,D8*%
%TO.N,/D8*%
X161656000Y-100740000D03*
%TO.P,A1,D9,D9*%
%TO.N,/D9*%
X159116000Y-100740000D03*
%TO.P,A1,D10,D10_CS*%
%TO.N,/D10*%
X156576000Y-100740000D03*
%TO.P,A1,D11,D11*%
%TO.N,/D11*%
X154036000Y-100740000D03*
%TO.P,A1,D12,D12*%
%TO.N,/D12*%
X151496000Y-100740000D03*
%TO.P,A1,D13,D13*%
%TO.N,/D13*%
X148956000Y-100740000D03*
D12*
%TO.P,A1,GND1,GND*%
%TO.N,GND*%
X146416000Y-100740000D03*
%TO.P,A1,GND2,GND*%
X160640000Y-149000000D03*
%TO.P,A1,GND3,GND*%
X163180000Y-149000000D03*
D11*
%TO.P,A1,IORF,IOREF*%
%TO.N,unconnected-(A1-IOREF-PadIORF)*%
X150480000Y-149000000D03*
%TO.P,A1,RST1,RESET*%
%TO.N,unconnected-(A1-RESET-PadRST1)*%
X153020000Y-149000000D03*
%TO.P,A1,SCL,SCL*%
%TO.N,/SCL*%
X138796000Y-100740000D03*
%TO.P,A1,SDA,SDA*%
%TO.N,/SDA*%
X141336000Y-100740000D03*
%TO.P,A1,VIN,VIN*%
%TO.N,unconnected-(A1-PadVIN)*%
X165720000Y-149000000D03*
%TD*%
D13*
%TO.P,J1,1,3V3*%
%TO.N,unconnected-(J1-3V3-Pad1)*%
X185000000Y-122210000D03*
D14*
%TO.P,J1,2,5V*%
%TO.N,unconnected-(J1-5V-Pad2)_1*%
X185000000Y-124750000D03*
%TO.P,J1,3,SDA_I2C1/GPIO02*%
%TO.N,/D2*%
X182460000Y-122210000D03*
%TO.P,J1,4,5V*%
%TO.N,unconnected-(J1-5V-Pad2)*%
X182460000Y-124750000D03*
%TO.P,J1,5,SCL_I2C1/GPIO03*%
%TO.N,/D3*%
X179920000Y-122210000D03*
%TO.P,J1,6,GND*%
%TO.N,GND*%
X179920000Y-124750000D03*
%TO.P,J1,7,GPCLK0/GPIO04*%
%TO.N,/D4*%
X177380000Y-122210000D03*
%TO.P,J1,8,GPIO14/UART_TXD*%
%TO.N,/D0*%
X177380000Y-124750000D03*
%TO.P,J1,9,GND*%
%TO.N,GND*%
X174840000Y-122210000D03*
%TO.P,J1,10,GPIO15/UART_RXD*%
%TO.N,/D1*%
X174840000Y-124750000D03*
%TO.P,J1,11,GPIO17/SPI1_~{CE1}*%
%TO.N,/D5*%
X172300000Y-122210000D03*
%TO.P,J1,12,GPIO18/SPI1_~{CE0}/PCM_CLK/PWM0*%
%TO.N,/A5*%
X172300000Y-124750000D03*
%TO.P,J1,13,GPIO27/SDIO_DAT3*%
%TO.N,/D6*%
X169760000Y-122210000D03*
%TO.P,J1,14,GND*%
%TO.N,GND*%
X169760000Y-124750000D03*
%TO.P,J1,15,GPIO22/SDIO_CLK*%
%TO.N,/D7*%
X167220000Y-122210000D03*
%TO.P,J1,16,GPIO23/SDIO_CMD*%
%TO.N,/A4*%
X167220000Y-124750000D03*
%TO.P,J1,17,3V3*%
%TO.N,unconnected-(J1-3V3-Pad1)_1*%
X164680000Y-122210000D03*
%TO.P,J1,18,GPIO24/SDIO_DAT0*%
%TO.N,/SCL*%
X164680000Y-124750000D03*
%TO.P,J1,19,MOSI_SPI0/GPIO10*%
%TO.N,/D8*%
X162140000Y-122210000D03*
%TO.P,J1,20,GND*%
%TO.N,GND*%
X162140000Y-124750000D03*
%TO.P,J1,21,MISO_SPI0/GPIO09*%
%TO.N,/D9*%
X159600000Y-122210000D03*
%TO.P,J1,22,GPIO25/SDIO_DAT1*%
%TO.N,/SDA*%
X159600000Y-124750000D03*
%TO.P,J1,23,SCLK_SPI0/GPIO11*%
%TO.N,/D10*%
X157060000Y-122210000D03*
%TO.P,J1,24,~{CE0}_SPI0/GPIO08*%
%TO.N,/A3*%
X157060000Y-124750000D03*
%TO.P,J1,25,GND*%
%TO.N,GND*%
X154520000Y-122210000D03*
%TO.P,J1,26,~{CE1}_SPI0/GPIO07*%
%TO.N,/A2*%
X154520000Y-124750000D03*
%TO.P,J1,27,ID_SD_I2C0/GPIO00*%
%TO.N,unconnected-(J1-ID_SD_I2C0{slash}GPIO00-Pad27)*%
X151980000Y-122210000D03*
%TO.P,J1,28,ID_SC_I2C0/GPIO01*%
%TO.N,unconnected-(J1-ID_SC_I2C0{slash}GPIO01-Pad28)*%
X151980000Y-124750000D03*
%TO.P,J1,29,GPCLK1/GPIO05*%
%TO.N,unconnected-(J1-GPCLK1{slash}GPIO05-Pad29)*%
X149440000Y-122210000D03*
%TO.P,J1,30,GND*%
%TO.N,GND*%
X149440000Y-124750000D03*
%TO.P,J1,31,GPCLK2/GPIO06*%
%TO.N,unconnected-(J1-GPCLK2{slash}GPIO06-Pad31)*%
X146900000Y-122210000D03*
%TO.P,J1,32,GPIO12/PWM0*%
%TO.N,/A1*%
X146900000Y-124750000D03*
%TO.P,J1,33,GPIO13/PWM1*%
%TO.N,/D11*%
X144360000Y-122210000D03*
%TO.P,J1,34,GND*%
%TO.N,GND*%
X144360000Y-124750000D03*
%TO.P,J1,35,GPIO19/SPI1_MISO/PCM_FS*%
%TO.N,/D12*%
X141820000Y-122210000D03*
%TO.P,J1,36,GPIO16/SPI1_~{CE2}*%
%TO.N,/A0*%
X141820000Y-124750000D03*
%TO.P,J1,37,GPIO26/SDIO_DAT2*%
%TO.N,unconnected-(J1-GPIO26{slash}SDIO_DAT2-Pad37)*%
X139280000Y-122210000D03*
%TO.P,J1,38,GPIO20/SPI1_MOSI/PCM_DIN/PWM1*%
%TO.N,/AREF*%
X139280000Y-124750000D03*
%TO.P,J1,39,GND*%
%TO.N,GND*%
X136740000Y-122210000D03*
%TO.P,J1,40,GPIO21/SPI1_SCLK/PCM_DOUT*%
%TO.N,/D13*%
X136740000Y-124750000D03*
%TD*%
D15*
%TO.N,GND*%
X163500000Y-120500000D03*
%TO.N,/AREF*%
X146529540Y-104970460D03*
%TD*%
D16*
%TO.N,GND*%
X155828000Y-123518000D02*
X160908000Y-123518000D01*
X169760000Y-124750000D02*
X171068000Y-123442000D01*
X150748000Y-123442000D02*
X149440000Y-124750000D01*
X153288000Y-123442000D02*
X150748000Y-123442000D01*
X148208000Y-123518000D02*
X145592000Y-123518000D01*
X176148000Y-123518000D02*
X178688000Y-123518000D01*
X163448000Y-123442000D02*
X168452000Y-123442000D01*
X149440000Y-124750000D02*
X148208000Y-123518000D01*
X171068000Y-123442000D02*
X173608000Y-123442000D01*
X168452000Y-123442000D02*
X169760000Y-124750000D01*
X174840000Y-122210000D02*
X176148000Y-123518000D01*
X163448000Y-120552000D02*
X163500000Y-120500000D01*
X163448000Y-123442000D02*
X163448000Y-120552000D01*
X154520000Y-122210000D02*
X153288000Y-123442000D01*
X160908000Y-123518000D02*
X162140000Y-124750000D01*
X154520000Y-122210000D02*
X155828000Y-123518000D01*
X178688000Y-123518000D02*
X179920000Y-124750000D01*
X162140000Y-124750000D02*
X163448000Y-123442000D01*
X173608000Y-123442000D02*
X174840000Y-122210000D01*
X145592000Y-123518000D02*
X144360000Y-124750000D01*
%TO.N,/D11*%
X144360000Y-122210000D02*
X154036000Y-112534000D01*
X154036000Y-112534000D02*
X154036000Y-100740000D01*
%TO.N,/D13*%
X136740000Y-124750000D02*
X137972000Y-123518000D01*
X137972000Y-111724000D02*
X148956000Y-100740000D01*
X137972000Y-123518000D02*
X137972000Y-111724000D01*
%TO.N,/D4*%
X173340000Y-100740000D02*
X173340000Y-118170000D01*
X173340000Y-118170000D02*
X177380000Y-122210000D01*
%TO.N,/D3*%
X175880000Y-100740000D02*
X175880000Y-118170000D01*
X175880000Y-118170000D02*
X179920000Y-122210000D01*
%TO.N,/D5*%
X170800000Y-120710000D02*
X172300000Y-122210000D01*
X170800000Y-100740000D02*
X170800000Y-120710000D01*
%TO.N,/A2*%
X175880000Y-146110000D02*
X175880000Y-149000000D01*
X154520000Y-124750000D02*
X175880000Y-146110000D01*
%TO.N,/D7*%
X167220000Y-122210000D02*
X165720000Y-120710000D01*
X165720000Y-120710000D02*
X165720000Y-100740000D01*
%TO.N,/A3*%
X178420000Y-146110000D02*
X178420000Y-149000000D01*
X157060000Y-124750000D02*
X178420000Y-146110000D01*
%TO.N,/D2*%
X178420000Y-118170000D02*
X182460000Y-122210000D01*
X178420000Y-100740000D02*
X178420000Y-118170000D01*
%TO.N,/A1*%
X170274235Y-147754400D02*
X172094400Y-147754400D01*
X172094400Y-147754400D02*
X173340000Y-149000000D01*
X146900000Y-124750000D02*
X147269835Y-124750000D01*
X147269835Y-124750000D02*
X170274235Y-147754400D01*
%TO.N,/D12*%
X141820000Y-122210000D02*
X151496000Y-112534000D01*
X151496000Y-112534000D02*
X151496000Y-100740000D01*
%TO.N,/A4*%
X167220000Y-124750000D02*
X180960000Y-138490000D01*
X180960000Y-138490000D02*
X180960000Y-149000000D01*
%TO.N,/D10*%
X157060000Y-101224000D02*
X156576000Y-100740000D01*
X157060000Y-122210000D02*
X157060000Y-101224000D01*
%TO.N,/AREF*%
X139280000Y-124750000D02*
X140512000Y-123518000D01*
X140512000Y-110988000D02*
X146529540Y-104970460D01*
X140512000Y-123518000D02*
X140512000Y-110988000D01*
%TO.N,/A5*%
X172300000Y-124750000D02*
X183500000Y-135950000D01*
X183500000Y-135950000D02*
X183500000Y-149000000D01*
%TO.N,/A0*%
X141820000Y-124750000D02*
X143052000Y-125982000D01*
X147782000Y-125982000D02*
X170800000Y-149000000D01*
X143052000Y-125982000D02*
X147782000Y-125982000D01*
%TO.N,/D9*%
X159600000Y-122210000D02*
X159600000Y-101224000D01*
X159600000Y-101224000D02*
X159116000Y-100740000D01*
%TO.N,/D8*%
X162140000Y-101224000D02*
X161656000Y-100740000D01*
X162140000Y-122210000D02*
X162140000Y-101224000D01*
%TO.N,/D6*%
X168260000Y-100740000D02*
X168260000Y-120710000D01*
X168260000Y-120710000D02*
X169760000Y-122210000D01*
%TD*%
M02*
